<svg width="256" height="256" viewBox="0 0 256 256" fill="none" xmlns="http://www.w3.org/2000/svg">
<path d="M193.401 66.007C227.421 66.007 255 93.5858 255 127.606C255 161.626 227.421 189.205 193.401 189.205C159.381 189.205 131.802 161.626 131.802 127.606C131.802 93.5858 159.381 66.007 193.401 66.007Z" fill="#ACE058"/>
<path d="M193.401 70.8741C162.069 70.8741 136.669 96.2738 136.669 127.606C136.669 158.938 162.069 184.338 193.401 184.338C224.733 184.338 250.133 158.938 250.133 127.606H255C255 161.626 227.421 189.205 193.401 189.205C159.381 189.205 131.802 161.626 131.802 127.606C131.802 93.5858 159.381 66.007 193.401 66.007C227.421 66.007 255 93.5858 255 127.606H250.133C250.133 96.2738 224.733 70.8741 193.401 70.8741Z" fill="white"/>
<path d="M62.5988 66.007C96.6189 66.007 124.198 93.5858 124.198 127.606C124.198 161.626 96.6189 189.205 62.5988 189.205C28.5787 189.205 1 161.626 1 127.606C1 93.5858 28.5787 66.007 62.5988 66.007Z" fill="#ACE058"/>
<path d="M62.5988 70.8741C31.2667 70.8741 5.86707 96.2738 5.86707 127.606C5.86707 158.938 31.2667 184.338 62.5988 184.338C93.9309 184.338 119.331 158.938 119.331 127.606H124.198C124.198 161.626 96.6189 189.205 62.5988 189.205C28.5787 189.205 1 161.626 1 127.606C1 93.5858 28.5787 66.007 62.5988 66.007C96.6189 66.007 124.198 93.5858 124.198 127.606H119.331C119.331 96.2738 93.9309 70.8741 62.5988 70.8741Z" fill="white"/>
<path d="M182.801 69.5015C170.208 62.5486 155.59 58.622 140.53 58.1469C125.47 57.6719 110.542 60.6665 97.3633 66.8065C84.1848 72.9465 73.2582 81.9977 65.7671 92.9797C58.2759 103.962 54.5059 116.456 54.8654 129.108C55.2249 141.761 59.7002 154.089 67.8066 164.759C75.9129 175.428 87.3411 184.032 100.853 189.637C114.366 195.242 129.447 197.635 144.463 196.558C159.479 195.48 173.857 190.972 186.041 183.523L154.563 147.216C150.269 149.841 145.201 151.43 139.909 151.81C134.616 152.19 129.301 151.346 124.538 149.37C119.776 147.395 115.748 144.363 112.891 140.602C110.034 136.842 108.456 132.496 108.33 128.037C108.203 123.577 109.532 119.174 112.172 115.303C114.812 111.432 118.663 108.242 123.308 106.078C127.953 103.914 133.214 102.859 138.523 103.026C143.831 103.194 148.983 104.578 153.421 107.028L182.801 69.5015Z" fill="#96A631"/>
<path d="M54.8654 129.108C54.5059 116.456 58.2759 103.962 65.7671 92.9797C73.2582 81.9977 84.1848 72.9465 97.3633 66.8065C110.542 60.6665 125.47 57.6719 140.53 58.1469L141.236 58.1717C156.047 58.7454 170.405 62.6573 182.801 69.5015L153.421 107.028C149.122 104.654 144.152 103.281 139.02 103.045L138.523 103.026C133.38 102.864 128.282 103.849 123.746 105.879L123.308 106.078C118.809 108.175 115.054 111.234 112.423 114.942L112.172 115.303C109.532 119.174 108.203 123.577 108.33 128.037L108.346 128.455C108.556 132.767 110.123 136.959 112.891 140.602L113.162 140.953C116 144.551 119.925 147.457 124.538 149.37L124.986 149.552C129.633 151.398 134.782 152.178 139.909 151.81C145.201 151.43 150.269 149.841 154.563 147.216L186.041 183.523C174.048 190.856 159.927 195.338 145.166 196.504L144.463 196.558C129.681 197.618 114.837 195.316 101.488 189.897L100.853 189.637C87.5523 184.119 76.2705 175.696 68.189 165.258L67.8066 164.759C59.8269 154.256 55.3657 142.146 54.8853 129.701L54.8654 129.108ZM69.7877 95.7224C62.9522 105.743 59.5101 117.037 59.7179 128.427L59.7307 128.97C60.0545 140.364 64.0253 151.549 71.3316 161.349L71.6821 161.814C79.1024 171.581 89.5927 179.581 102.12 184.89L102.718 185.141C115.51 190.447 129.831 192.728 144.114 191.703L144.783 191.652C156.787 190.704 168.305 187.451 178.459 182.208L153.419 153.327C149.335 155.201 144.854 156.334 140.257 156.664C134.232 157.097 128.156 156.141 122.673 153.866L122.162 153.649C116.895 151.37 112.334 147.914 109.015 143.546L108.856 143.334C105.521 138.861 103.619 133.625 103.464 128.175C103.307 122.637 104.964 117.233 108.151 112.561L108.301 112.343C111.473 107.784 115.975 104.126 121.253 101.667L121.757 101.436C126.821 99.1707 132.448 98.0503 138.11 98.1477L138.676 98.1616C143.283 98.307 147.815 99.2581 151.99 100.961L175.32 71.1619C164.655 66.2136 152.689 63.3998 140.377 63.0114L139.705 62.9927C125.607 62.6494 111.686 65.5028 99.4188 71.2184C87.1516 76.9338 77.06 85.265 70.116 95.246L69.7877 95.7224Z" fill="white"/>
</svg>
